<svg width="106" height="23" viewBox="0 0 106 23" fill="none" xmlns="http://www.w3.org/2000/svg">
<path d="M5.25 8.78125V22H0.75V5.09375H4.98438L5.25 8.78125ZM10.3438 4.98438L10.2656 9.15625C10.0469 9.125 9.78125 9.09896 9.46875 9.07812C9.16667 9.04688 8.89062 9.03125 8.64062 9.03125C8.00521 9.03125 7.45312 9.11458 6.98438 9.28125C6.52604 9.4375 6.14062 9.67188 5.82812 9.98438C5.52604 10.2969 5.29688 10.6771 5.14062 11.125C4.99479 11.5729 4.91146 12.0833 4.89062 12.6562L3.98438 12.375C3.98438 11.2812 4.09375 10.276 4.3125 9.35938C4.53125 8.43229 4.84896 7.625 5.26562 6.9375C5.69271 6.25 6.21354 5.71875 6.82812 5.34375C7.44271 4.96875 8.14583 4.78125 8.9375 4.78125C9.1875 4.78125 9.44271 4.80208 9.70312 4.84375C9.96354 4.875 10.1771 4.92188 10.3438 4.98438ZM21.5312 5.09375V8.28125H11.6875V5.09375H21.5312ZM14.125 0.921875H18.625V16.9062C18.625 17.3958 18.6875 17.7708 18.8125 18.0312C18.9479 18.2917 19.1458 18.474 19.4062 18.5781C19.6667 18.6719 19.9948 18.7188 20.3906 18.7188C20.6719 18.7188 20.9219 18.7083 21.1406 18.6875C21.3698 18.6562 21.5625 18.625 21.7188 18.5938L21.7344 21.9062C21.349 22.0312 20.9323 22.1302 20.4844 22.2031C20.0365 22.276 19.5417 22.3125 19 22.3125C18.0104 22.3125 17.1458 22.151 16.4062 21.8281C15.6771 21.4948 15.1146 20.9635 14.7188 20.2344C14.3229 19.5052 14.125 18.5469 14.125 17.3594V0.921875ZM24.3125 19.8281C24.3125 19.1615 24.5417 18.6042 25 18.1562C25.4688 17.7083 26.0885 17.4844 26.8594 17.4844C27.6302 17.4844 28.2448 17.7083 28.7031 18.1562C29.1719 18.6042 29.4062 19.1615 29.4062 19.8281C29.4062 20.4948 29.1719 21.0521 28.7031 21.5C28.2448 21.9479 27.6302 22.1719 26.8594 22.1719C26.0885 22.1719 25.4688 21.9479 25 21.5C24.5417 21.0521 24.3125 20.4948 24.3125 19.8281Z" fill="#61DCFB"/>
<path d="M37.7812 8.70312V22H33.2812V5.09375H37.5L37.7812 8.70312ZM37.125 12.9531H35.9062C35.9062 11.7031 36.0677 10.5781 36.3906 9.57812C36.7135 8.56771 37.1667 7.70833 37.75 7C38.3333 6.28125 39.026 5.73438 39.8281 5.35938C40.6406 4.97396 41.5469 4.78125 42.5469 4.78125C43.3385 4.78125 44.0625 4.89583 44.7188 5.125C45.375 5.35417 45.9375 5.71875 46.4062 6.21875C46.8854 6.71875 47.25 7.38021 47.5 8.20312C47.7604 9.02604 47.8906 10.0312 47.8906 11.2188V22H43.3594V11.2031C43.3594 10.4531 43.2552 9.86979 43.0469 9.45312C42.8385 9.03646 42.5312 8.74479 42.125 8.57812C41.7292 8.40104 41.2396 8.3125 40.6562 8.3125C40.0521 8.3125 39.526 8.43229 39.0781 8.67188C38.6406 8.91146 38.276 9.24479 37.9844 9.67188C37.7031 10.0885 37.4896 10.5781 37.3438 11.1406C37.1979 11.7031 37.125 12.3073 37.125 12.9531ZM59.0938 22.3125C57.7812 22.3125 56.6042 22.1042 55.5625 21.6875C54.5208 21.2604 53.6354 20.6719 52.9062 19.9219C52.1875 19.1719 51.6354 18.3021 51.25 17.3125C50.8646 16.3125 50.6719 15.25 50.6719 14.125V13.5C50.6719 12.2188 50.8542 11.0469 51.2188 9.98438C51.5833 8.92188 52.1042 8 52.7812 7.21875C53.4688 6.4375 54.3021 5.83854 55.2812 5.42188C56.2604 4.99479 57.3646 4.78125 58.5938 4.78125C59.7917 4.78125 60.8542 4.97917 61.7812 5.375C62.7083 5.77083 63.4844 6.33333 64.1094 7.0625C64.7448 7.79167 65.224 8.66667 65.5469 9.6875C65.8698 10.6979 66.0312 11.8229 66.0312 13.0625V14.9375H52.5938V11.9375H61.6094V11.5938C61.6094 10.9688 61.4948 10.4115 61.2656 9.92188C61.0469 9.42188 60.7135 9.02604 60.2656 8.73438C59.8177 8.44271 59.2448 8.29688 58.5469 8.29688C57.9531 8.29688 57.4427 8.42708 57.0156 8.6875C56.5885 8.94792 56.2396 9.3125 55.9688 9.78125C55.7083 10.25 55.5104 10.8021 55.375 11.4375C55.25 12.0625 55.1875 12.75 55.1875 13.5V14.125C55.1875 14.8021 55.2812 15.4271 55.4688 16C55.6667 16.5729 55.9427 17.0677 56.2969 17.4844C56.6615 17.901 57.099 18.224 57.6094 18.4531C58.1302 18.6823 58.7188 18.7969 59.375 18.7969C60.1875 18.7969 60.9427 18.6406 61.6406 18.3281C62.349 18.0052 62.9583 17.5208 63.4688 16.875L65.6562 19.25C65.3021 19.7604 64.8177 20.25 64.2031 20.7188C63.599 21.1875 62.8698 21.5729 62.0156 21.875C61.1615 22.1667 60.1875 22.3125 59.0938 22.3125ZM73.4219 17.625L76.9375 5.09375H79.7969L78.875 10.0156L75.3594 22H72.9688L73.4219 17.625ZM71.6406 5.09375L74.1562 17.6094L74.3906 22H71.5781L67.2969 5.09375H71.6406ZM83.0156 17.4062L85.4688 5.09375H89.8281L85.5469 22H82.75L83.0156 17.4062ZM80.1875 5.09375L83.6875 17.5312L84.1719 22H81.7656L78.25 10.0312L77.3594 5.09375H80.1875ZM101.234 17.3281C101.234 17.0052 101.141 16.7135 100.953 16.4531C100.766 16.1927 100.417 15.9531 99.9062 15.7344C99.4062 15.5052 98.6823 15.2969 97.7344 15.1094C96.8802 14.9219 96.0833 14.6875 95.3438 14.4062C94.6146 14.1146 93.9792 13.7656 93.4375 13.3594C92.9062 12.9531 92.4896 12.474 92.1875 11.9219C91.8854 11.3594 91.7344 10.7188 91.7344 10C91.7344 9.29167 91.8854 8.625 92.1875 8C92.5 7.375 92.9427 6.82292 93.5156 6.34375C94.099 5.85417 94.8073 5.47396 95.6406 5.20312C96.4844 4.92188 97.4323 4.78125 98.4844 4.78125C99.9531 4.78125 101.214 5.01562 102.266 5.48438C103.328 5.95312 104.141 6.59896 104.703 7.42188C105.276 8.23438 105.562 9.16146 105.562 10.2031H101.062C101.062 9.76562 100.969 9.375 100.781 9.03125C100.604 8.67708 100.323 8.40104 99.9375 8.20312C99.5625 7.99479 99.0729 7.89062 98.4688 7.89062C97.9688 7.89062 97.5365 7.97917 97.1719 8.15625C96.8073 8.32292 96.526 8.55208 96.3281 8.84375C96.1406 9.125 96.0469 9.4375 96.0469 9.78125C96.0469 10.0417 96.099 10.276 96.2031 10.4844C96.3177 10.6823 96.5 10.8646 96.75 11.0312C97 11.1979 97.3229 11.3542 97.7188 11.5C98.125 11.6354 98.625 11.7604 99.2188 11.875C100.438 12.125 101.526 12.4531 102.484 12.8594C103.443 13.2552 104.203 13.7969 104.766 14.4844C105.328 15.1615 105.609 16.0521 105.609 17.1562C105.609 17.9062 105.443 18.5938 105.109 19.2188C104.776 19.8438 104.297 20.3906 103.672 20.8594C103.047 21.3177 102.297 21.6771 101.422 21.9375C100.557 22.1875 99.5833 22.3125 98.5 22.3125C96.9271 22.3125 95.5938 22.0312 94.5 21.4688C93.4167 20.9062 92.5938 20.1927 92.0312 19.3281C91.4792 18.4531 91.2031 17.5573 91.2031 16.6406H95.4688C95.4896 17.2552 95.6458 17.75 95.9375 18.125C96.2396 18.5 96.6198 18.7708 97.0781 18.9375C97.5469 19.1042 98.0521 19.1875 98.5938 19.1875C99.1771 19.1875 99.6615 19.1094 100.047 18.9531C100.432 18.7865 100.724 18.5677 100.922 18.2969C101.13 18.0156 101.234 17.6927 101.234 17.3281Z" fill="#E1E1E6"/>
</svg>
